<?xml version="1.0" standalone="no"?>
<!DOCTYPE svg PUBLIC "-//W3C//DTD SVG 20010904//EN"
 "http://www.w3.org/TR/2001/REC-SVG-20010904/DTD/svg10.dtd">
<svg version="1.0" xmlns="http://www.w3.org/2000/svg"
 width="512.000000pt" height="512.000000pt" viewBox="0 0 512.000000 512.000000"
 preserveAspectRatio="xMidYMid meet">
<metadata>
Created by potrace 1.11, written by Peter Selinger 2001-2013
</metadata>
<g transform="translate(0.000000,512.000000) scale(0.100000,-0.100000)"
fill="#000000" stroke="none">
<path d="M2405 4148 c-33 -4 -84 -13 -112 -19 -29 -6 -56 -11 -60 -11 -5 0
-53 -16 -107 -35 -397 -138 -714 -454 -851 -849 -21 -60 -39 -110 -41 -112 -2
-3 -15 -5 -94 -16 -127 -18 -294 -86 -420 -171 -398 -268 -574 -742 -443
-1195 23 -83 90 -228 119 -261 8 -8 14 -19 14 -23 0 -14 118 -152 178 -208
131 -121 317 -221 482 -259 25 -6 54 -14 65 -17 34 -11 2743 -13 2815 -2 349
52 653 270 817 586 44 84 89 207 99 270 3 22 10 59 14 84 16 83 4 276 -25 385
-109 420 -480 759 -889 811 -28 4 -57 8 -65 9 -8 1 -29 46 -51 106 -50 142
-82 205 -163 326 -162 243 -412 437 -687 534 -77 28 -195 57 -260 65 -84 10
-268 11 -335 2z"/>
</g>
</svg>
